# Blender v2.79 (sub 0) OBJ File: ''
# www.blender.org
mtllib gema.mtl
o Gem
v -0.062196 -0.623116 -0.077195
v -0.062196 0.526884 -0.077195
v -0.062196 -0.223116 -0.618391
v 0.320488 0.176884 -1.001075
v -0.062196 0.351884 -0.943109
v 0.167414 0.526884 -0.631523
v 0.320488 -0.223116 -0.459879
v 0.861684 0.176884 -0.459879
v 0.550098 0.351884 -0.689489
v 0.492132 0.526884 -0.306805
v 0.479000 -0.223116 -0.077195
v 0.861684 0.176884 0.305488
v 0.803718 0.351884 -0.077195
v 0.492132 0.526884 0.152415
v 0.320488 -0.223116 0.305488
v 0.320488 0.176884 0.846684
v 0.550098 0.351884 0.535098
v 0.167414 0.526884 0.477132
v -0.062196 -0.223116 0.464001
v -0.444879 0.176884 0.846684
v -0.062196 0.351884 0.788718
v -0.291806 0.526884 0.477132
v -0.444879 -0.223116 0.305488
v -0.986075 0.176884 0.305488
v -0.674489 0.351884 0.535098
v -0.616524 0.526884 0.152415
v -0.603392 -0.223116 -0.077195
v -0.986075 0.176884 -0.459879
v -0.928110 0.351884 -0.077195
v -0.616524 0.526884 -0.306805
v -0.444879 -0.223116 -0.459879
v -0.444879 0.176884 -1.001075
v -0.674489 0.351884 -0.689489
v -0.291806 0.526884 -0.631523
vt 0.207363 0.125719
vt 0.469783 0.125719
vt 0.469783 0.388139
vt 0.207363 0.388139
vt 0.469783 0.125719
vt 0.469783 0.388139
vt 0.207363 0.125719
vt 0.469783 0.388139
vt 0.207363 0.125719
vt 0.469783 0.388139
vt 0.207363 0.388139
vt 0.469783 0.125719
vt 0.469783 0.388139
vt 0.207363 0.125719
vt 0.469783 0.388139
vt 0.207363 0.388139
vt 0.469783 0.125719
vt 0.469783 0.388139
vt 0.207363 0.125719
vt 0.469783 0.388139
vt 0.207363 0.125719
vt 0.207363 0.388139
vt 0.469783 0.125719
vt 0.469783 0.388139
vt 0.207363 0.125719
vt 0.469783 0.388139
vt 0.207363 0.388139
vt 0.469783 0.125719
vt 0.469783 0.388139
vt 0.207363 0.125719
vt 0.469783 0.388139
vt 0.207363 0.125719
vt 0.207363 0.388139
vt 0.469783 0.125719
vt 0.469783 0.388139
vt 0.207363 0.125719
vt 0.469783 0.388139
vt 0.207363 0.388139
vt 0.469783 0.125719
vt 0.469783 0.388139
vt 0.207363 0.125719
vt 0.469783 0.388139
vt 0.207363 0.125719
vt 0.207363 0.388139
vt 0.469783 0.125719
vt 0.469783 0.388139
vt 0.207363 0.125719
vt 0.469783 0.388139
vt 0.207363 0.388139
vt 0.469783 0.125719
vt 0.469783 0.388139
vt 0.207363 0.125719
vt 0.469783 0.388139
vt 0.207363 0.125719
vt 0.207363 0.388139
vt 0.469783 0.125719
vt 0.469783 0.388139
vt 0.207363 0.125719
vt 0.469783 0.388139
vt 0.207363 0.388139
vt 0.469783 0.125719
vt 0.469783 0.388139
vt 0.207363 0.125719
vt 0.469783 0.388139
vt 0.207363 0.125719
vt 0.207363 0.388139
vt 0.469783 0.125719
vt 0.469783 0.388139
vt 0.207363 0.125719
vt 0.469783 0.388139
vt 0.207363 0.388139
vt 0.469783 0.125719
vt 0.469783 0.388139
vt 0.207363 0.125719
vt 0.469783 0.388139
vt 0.207363 0.125719
vt 0.207363 0.388139
vt 0.469783 0.125719
vt 0.469783 0.388139
vt 0.207363 0.125719
vt 0.469783 0.388139
vt 0.207363 0.388139
vt 0.469783 0.125719
vt 0.469783 0.388139
vt 0.207363 0.125719
vt 0.207363 0.125719
vt 0.207363 0.388139
vt 0.469783 0.125719
vt 0.469783 0.388139
vt 0.207363 0.125719
vt 0.469783 0.125719
vt 0.207363 0.125719
vn 0.2391 -0.7809 -0.5771
vn 0.5109 -0.6913 -0.5109
vn 0.6712 0.3144 -0.6712
vn 0.2520 0.7526 -0.6084
vn 0.3463 0.8719 -0.3463
vn 0.5771 -0.7809 -0.2391
vn 0.7226 -0.6913 0.0000
vn 0.9493 0.3144 0.0000
vn 0.6084 0.7526 -0.2520
vn 0.4897 0.8719 0.0000
vn 0.5771 -0.7809 0.2391
vn 0.5109 -0.6913 0.5109
vn 0.6712 0.3144 0.6712
vn 0.6084 0.7526 0.2520
vn 0.3463 0.8719 0.3463
vn 0.2391 -0.7809 0.5771
vn 0.0000 -0.6913 0.7226
vn 0.0000 0.3144 0.9493
vn 0.2520 0.7526 0.6084
vn 0.0000 0.8719 0.4897
vn -0.2391 -0.7809 0.5771
vn -0.5109 -0.6913 0.5109
vn -0.6712 0.3144 0.6712
vn -0.2520 0.7526 0.6084
vn -0.3463 0.8719 0.3463
vn -0.5771 -0.7809 0.2391
vn -0.7226 -0.6913 0.0000
vn -0.9493 0.3144 0.0000
vn -0.6084 0.7526 0.2520
vn -0.4897 0.8719 0.0000
vn -0.5771 -0.7809 -0.2391
vn -0.5109 -0.6913 -0.5109
vn -0.6712 0.3144 -0.6712
vn -0.6084 0.7526 -0.2520
vn -0.3463 0.8719 -0.3463
vn -0.2391 -0.7809 -0.5771
vn 0.0000 -0.6913 -0.7226
vn 0.0000 0.3144 -0.9493
vn -0.2520 0.7526 -0.6084
vn 0.0000 0.8719 -0.4897
vn 0.0000 1.0000 0.0000
usemtl None
s off
f 7/1/1 1/2/1 3/3/1 4/4/1
f 7/1/2 4/5/2 8/6/2
f 8/7/3 4/5/3 9/8/3
f 9/9/4 4/5/4 5/10/4 6/11/4
f 9/9/5 6/12/5 10/13/5
f 11/14/6 1/2/6 7/15/6 8/16/6
f 11/14/7 8/17/7 12/18/7
f 12/19/8 8/17/8 13/20/8
f 13/21/9 8/17/9 9/8/9 10/22/9
f 13/21/10 10/23/10 14/24/10
f 15/25/11 1/2/11 11/26/11 12/27/11
f 15/25/12 12/28/12 16/29/12
f 16/30/13 12/28/13 17/31/13
f 17/32/14 12/28/14 13/20/14 14/33/14
f 17/32/15 14/34/15 18/35/15
f 19/36/16 1/2/16 15/37/16 16/38/16
f 19/36/17 16/39/17 20/40/17
f 20/41/18 16/39/18 21/42/18
f 21/43/19 16/39/19 17/31/19 18/44/19
f 21/43/20 18/45/20 22/46/20
f 23/47/21 1/2/21 19/48/21 20/49/21
f 23/47/22 20/50/22 24/51/22
f 24/52/23 20/50/23 25/53/23
f 25/54/24 20/50/24 21/42/24 22/55/24
f 25/54/25 22/56/25 26/57/25
f 27/58/26 1/2/26 23/59/26 24/60/26
f 27/58/27 24/61/27 28/62/27
f 28/63/28 24/61/28 29/64/28
f 29/65/29 24/61/29 25/53/29 26/66/29
f 29/65/30 26/67/30 30/68/30
f 31/69/31 1/2/31 27/70/31 28/71/31
f 31/69/32 28/72/32 32/73/32
f 32/74/33 28/72/33 33/75/33
f 33/76/34 28/72/34 29/64/34 30/77/34
f 33/76/35 30/78/35 34/79/35
f 3/80/36 1/2/36 31/81/36 32/82/36
f 3/80/37 32/83/37 4/84/37
f 4/85/38 32/83/38 5/10/38
f 5/86/39 32/83/39 33/75/39 34/87/39
f 5/86/40 34/88/40 6/89/40
f 6/90/41 34/79/41 2/91/41
f 2/92/41 10/13/41 6/12/41
f 2/92/41 14/24/41 10/23/41
f 2/92/41 18/35/41 14/34/41
f 2/92/41 22/46/41 18/45/41
f 2/92/41 26/57/41 22/56/41
f 2/92/41 30/68/41 26/67/41
f 2/92/41 34/79/41 30/78/41
